<svg aria-hidden="true" style="width:0;height:0;position:absolute;overflow:hidden" xmlns="http://www.w3.org/2000/svg"><defs><symbol id="icon-heart" viewBox="0 0 32 32"><path d="M23.6 2c-3.363 0-6.258 2.736-7.599 5.594C14.659 4.736 11.764 2 8.4 2 3.763 2 0 5.764 0 10.401c0 9.433 9.516 11.906 16.001 21.232C22.131 22.365 32 19.533 32 10.401 32 5.764 28.237 2 23.6 2z"/></symbol><symbol id="icon-facebook" viewBox="0 0 32 32"><path d="M19 6h5V0h-5c-3.86 0-7 3.14-7 7v3H8v6h4v16h6V16h5l1-6h-6V7c0-.542.458-1 1-1z"/></symbol><symbol id="icon-instagram" viewBox="0 0 32 32"><path d="M16 2.881c4.275 0 4.781.019 6.462.094 1.563.069 2.406.331 2.969.55a4.952 4.952 0 0 1 1.837 1.194 5.015 5.015 0 0 1 1.2 1.838c.219.563.481 1.412.55 2.969.075 1.688.094 2.194.094 6.463s-.019 4.781-.094 6.463c-.069 1.563-.331 2.406-.55 2.969a4.94 4.94 0 0 1-1.194 1.837 5.02 5.02 0 0 1-1.837 1.2c-.563.219-1.413.481-2.969.55-1.688.075-2.194.094-6.463.094s-4.781-.019-6.463-.094c-1.563-.069-2.406-.331-2.969-.55a4.952 4.952 0 0 1-1.838-1.194 5.02 5.02 0 0 1-1.2-1.837c-.219-.563-.481-1.413-.55-2.969-.075-1.688-.094-2.194-.094-6.463s.019-4.781.094-6.463c.069-1.563.331-2.406.55-2.969a4.964 4.964 0 0 1 1.194-1.838 5.015 5.015 0 0 1 1.838-1.2c.563-.219 1.412-.481 2.969-.55 1.681-.075 2.188-.094 6.463-.094zM16 0c-4.344 0-4.887.019-6.594.094-1.7.075-2.869.35-3.881.744-1.056.412-1.95.956-2.837 1.85a7.833 7.833 0 0 0-1.85 2.831C.444 6.538.169 7.7.094 9.4.019 11.113 0 11.656 0 16s.019 4.887.094 6.594c.075 1.7.35 2.869.744 3.881.413 1.056.956 1.95 1.85 2.837a7.82 7.82 0 0 0 2.831 1.844c1.019.394 2.181.669 3.881.744 1.706.075 2.25.094 6.594.094s4.888-.019 6.594-.094c1.7-.075 2.869-.35 3.881-.744 1.05-.406 1.944-.956 2.831-1.844s1.438-1.781 1.844-2.831c.394-1.019.669-2.181.744-3.881.075-1.706.094-2.25.094-6.594s-.019-4.887-.094-6.594c-.075-1.7-.35-2.869-.744-3.881a7.506 7.506 0 0 0-1.831-2.844A7.82 7.82 0 0 0 26.482.843C25.463.449 24.301.174 22.601.099c-1.712-.081-2.256-.1-6.6-.1z"/><path d="M16 7.781c-4.537 0-8.219 3.681-8.219 8.219s3.681 8.219 8.219 8.219 8.219-3.681 8.219-8.219A8.221 8.221 0 0 0 16 7.781zm0 13.55a5.331 5.331 0 1 1 0-10.663 5.331 5.331 0 0 1 0 10.663zM26.462 7.456a1.919 1.919 0 1 1-3.838 0 1.919 1.919 0 0 1 3.838 0z"/></symbol><symbol id="icon-twitter" viewBox="0 0 32 32"><path d="M32 7.075a12.941 12.941 0 0 1-3.769 1.031 6.601 6.601 0 0 0 2.887-3.631 13.21 13.21 0 0 1-4.169 1.594A6.565 6.565 0 0 0 22.155 4a6.563 6.563 0 0 0-6.563 6.563c0 .512.056 1.012.169 1.494A18.635 18.635 0 0 1 2.23 5.195a6.56 6.56 0 0 0-.887 3.3 6.557 6.557 0 0 0 2.919 5.463 6.565 6.565 0 0 1-2.975-.819v.081a6.565 6.565 0 0 0 5.269 6.437 6.574 6.574 0 0 1-2.968.112 6.588 6.588 0 0 0 6.131 4.563 13.17 13.17 0 0 1-9.725 2.719 18.568 18.568 0 0 0 10.069 2.95c12.075 0 18.681-10.006 18.681-18.681 0-.287-.006-.569-.019-.85A13.216 13.216 0 0 0 32 7.076z"/></symbol><symbol id="icon-youtube2" viewBox="0 0 80 32"><path d="M10.75 5.294a.449.449 0 0 0 .012-.056l.033-.236-1.48-.008c-1.337-.008-1.746 0-1.783.034-.018.016-.479 1.77-1.302 4.946-.392 1.515-.723 2.725-.734 2.689s-.481-1.766-1.044-3.843c-.563-2.078-1.034-3.789-1.048-3.803-.019-.019-1.812-.028-3.263-.016-.21.002-.327-.41 1.876 6.598.305.97.762 2.344 1.015 3.052.292.817.5 1.448.642 1.974.251 1.002.26 1.63.205 2.363-.063.847-.073 6.826-.011 6.926.047.077 2.851.112 3.116.04.042-.012.071-.053.09-.279.066-.194.071-.968.071-4.18v-4.103l.179-.566c.117-.37.413-1.344.656-2.163s.538-1.801.654-2.18c1.057-3.447 2.067-6.838 2.094-7.032l.022-.158zM26.441 10.27l-.001.214h-.033l-.019 5.906-.018 5.726-.458.467c-.513.522-.925.722-1.297.629-.405-.102-.395.056-.429-6.712l-.031-6.23h-2.947v.214h-.034v6.759c0 7.242 0 7.237.367 7.965.293.579.719.861 1.45.958.962.128 2-.308 2.962-1.244l.418-.407v.701c0 .606.017.706.127.737.18.05 2.412.053 2.653.004l.2-.041v-.207l.034-.007V10.23l-2.944.039zM18.965 13.323c-.279-1.198-.802-2.004-1.664-2.561-1.353-.875-2.897-.967-4.331-.259-1.045.516-1.717 1.372-2.065 2.628-.041.15-.072.275-.095.463-.088.443-.099 1.105-.122 4.186-.035 4.748.019 5.313.614 6.391.583 1.058 1.794 1.833 3.112 1.993.397.048 1.201-.027 1.663-.155 1.051-.291 2.058-1.122 2.504-2.065.192-.407.309-.691.379-1.208.13-.707.14-1.849.14-4.762 0-3.715-.012-4.121-.136-4.651zM15.604 23c-.247.188-.679.27-1.031.195-.271-.058-.636-.482-.748-.869-.14-.482-.151-7.187-.03-8.502.199-.658.756-1.002 1.364-.838.474.128.716.424.854 1.046.103.461.115 1.035.093 4.414-.014 2.241-.022 3.336-.096 3.924-.074.371-.197.47-.407.63zM71.887 16.692h1.424l-.023-1.29c-.022-1.183-.039-1.319-.198-1.64-.249-.507-.617-.731-1.201-.731-.701 0-1.146.339-1.356 1.036-.089.296-.183 2.334-.116 2.51.038.098.241.116 1.469.116zM62.369 13.757c-.19-.383-.543-.571-.954-.556-.319.011-.674.146-1.015.407l-.254.193v9.269l.254.193c.576.439 1.209.532 1.644.241.172-.115.285-.274.372-.527.114-.329.124-.75.109-4.649-.015-4.064-.024-4.303-.157-4.57z"/><path d="M80.027 9.582c-.284-3.401-.509-4.505-1.211-5.923-.929-1.878-2.272-2.868-4.184-3.086-1.478-.168-7.041-.405-12.189-.52-8.912-.198-23.564.183-25.436.662-.865.221-1.513.597-2.188 1.269-1.183 1.177-1.887 2.865-2.17 5.2-.647 5.331-.66 11.773-.037 17.297.268 2.376.82 3.92 1.857 5.192.647.794 1.761 1.469 2.758 1.67.7.141 4.201.337 9.3.521.76.027 2.771.074 4.47.105 3.541.063 10.051.026 13.772-.079 2.504-.07 7.069-.255 7.922-.321.24-.019.796-.054 1.236-.079 1.477-.083 2.417-.393 3.3-1.086 1.142-.897 2.027-2.556 2.4-4.501.354-1.84.59-5.118.638-8.839.04-3.109-.013-4.787-.238-7.482zM44.54 8.35l-1.656.02-.073 17.661-1.435.018c-1.11.015-1.447-.001-1.474-.073-.019-.051-.042-4.032-.052-8.849l-.018-8.758-3.234-.041v-2.76l9.557.039.041 2.721-1.656.02zm10.154 10.122v7.595h-2.616v-.799c0-.601-.023-.799-.093-.799-.051 0-.288.198-.527.441-.517.526-1.13.949-1.653 1.145-1.083.405-2.112.169-2.551-.586-.401-.691-.409-.845-.409-8.01v-6.58h2.614l.02 6.196c.019 6.088.022 6.2.168 6.448.193.329.488.417.956.288.276-.076.464-.21.911-.654l.563-.561V10.879h2.616v7.595zm10.205 6.51c-.23.513-.744 1.016-1.165 1.14-1.099.324-1.98.06-2.998-.897-.316-.297-.61-.538-.654-.538-.053 0-.082.233-.082.69v.69h-2.616V5.572H60v3.343c0 1.839.025 3.343.054 3.343s.306-.244.613-.541c.707-.683 1.298-.981 2.049-1.038 1.338-.101 2.135.587 2.501 2.16.114.491.125 1.051.125 5.596 0 5.537-.001 5.56-.443 6.546zm11.069-3.039c-.023.57-.092 1.223-.154 1.454-.364 1.349-1.332 2.304-2.732 2.696-1.885.527-3.96-.337-4.788-1.994-.465-.93-.481-1.116-.481-5.662 0-3.707.013-4.162.132-4.667.336-1.431 1.168-2.357 2.578-2.871a3.917 3.917 0 0 1 1.261-.234c1.521-.031 3.031.787 3.663 2.119.427.899.48 1.283.522 3.816l.039 2.271-5.578.039-.02 1.526c-.029 2.153.116 2.815.697 3.207.489.329 1.24.305 1.649-.055.383-.337.491-.698.529-1.753l.034-.927h2.694l-.043 1.036z"/></symbol><symbol id="icon-appleinc" viewBox="0 0 32 32"><path d="M24.734 17.003c-.04-4.053 3.305-5.996 3.454-6.093-1.88-2.751-4.808-3.127-5.851-3.171-2.492-.252-4.862 1.467-6.127 1.467-1.261 0-3.213-1.43-5.28-1.392-2.716.04-5.221 1.579-6.619 4.012-2.822 4.897-.723 12.151 2.028 16.123 1.344 1.944 2.947 4.127 5.051 4.049 2.026-.081 2.793-1.311 5.242-1.311s3.138 1.311 5.283 1.271c2.18-.041 3.562-1.981 4.897-3.931 1.543-2.255 2.179-4.439 2.216-4.551-.048-.022-4.252-1.632-4.294-6.473zM20.705 5.11C21.822 3.755 22.576 1.875 22.37 0c-1.609.066-3.559 1.072-4.713 2.423-1.036 1.199-1.942 3.113-1.699 4.951 1.796.14 3.629-.913 4.747-2.264z"/></symbol><symbol id="icon-search" viewBox="0 0 32 32"><path d="M19.427 20.427a8.5 8.5 0 1 1 1.083-.917l5.997 5.997a.699.699 0 0 1-.008.992.7.7 0 0 1-.992.008l-6.081-6.081zM14.5 21a7.5 7.5 0 1 0 0-15 7.5 7.5 0 0 0 0 15z"/></symbol><symbol id="icon-x" viewBox="0 0 24 24"><path d="M5.293 6.707 10.586 12l-5.293 5.293a.999.999 0 1 0 1.414 1.414L12 13.414l5.293 5.293a.999.999 0 1 0 1.414-1.414L13.414 12l5.293-5.293a.999.999 0 1 0-1.414-1.414L12 10.586 6.707 5.293a.999.999 0 1 0-1.414 1.414z"/></symbol></defs></svg>